<?xml version="1.0" encoding="utf-8"?>
<!-- Generator: Adobe Illustrator 16.0.4, SVG Export Plug-In . SVG Version: 6.00 Build 0)  -->
<!DOCTYPE svg PUBLIC "-//W3C//DTD SVG 1.1//EN" "http://www.w3.org/Graphics/SVG/1.1/DTD/svg11.dtd">
<svg version="1.1" id="Layer_1" xmlns="http://www.w3.org/2000/svg" xmlns:xlink="http://www.w3.org/1999/xlink" x="0px" y="0px"
	 width="72px" height="72px" viewBox="0 0 72 72" enable-background="new 0 0 72 72" xml:space="preserve">
<g>
	<path fill="#4D200B" d="M35.895,1.318C17.542,1.318,2.61,16.25,2.61,34.603c0,18.353,14.932,33.285,33.285,33.285
		c18.354,0,33.285-14.932,33.285-33.285C69.18,16.25,54.248,1.318,35.895,1.318z M35.895,64.595
		c-16.538,0-29.992-13.455-29.992-29.992c0-16.538,13.454-29.992,29.992-29.992c16.538,0,29.992,13.455,29.992,29.992
		C65.887,51.14,52.432,64.595,35.895,64.595z"/>
	<path fill="#4D200B" d="M53.557,27.849c-2.02-0.773-4.426,0.602-6.061,1.86c-0.053-1.188-0.103-1.89-0.103-1.89l0.004,0.16
		c0-0.027,0-0.042,0-0.042c0-0.738-0.604-1.343-1.342-1.343h-6.184H23.247c-0.737,0-1.342,0.604-1.342,1.343
		c0,0-0.223,7.899-0.029,11.684c0.321,8.332,1.75,18.028,6.664,18.081h12.339c2.635-0.029,4.268-2.831,5.265-6.708
		c2.998-0.338,6.089-1.802,6.223-1.866l0.121-0.065c2.011-1.214,3.196-4.272,3.617-9.348c0.29-3.473,0.104-6.609,0.097-6.721
		C56.07,30.201,55.181,28.471,53.557,27.849z M53.291,39.51c-0.119,1.411-0.625,6.051-2.208,7.102
		c-0.384,0.176-2.324,1.036-4.327,1.431c0.823-4.955,0.917-10.799,0.845-14.928l0.136,0.134c1.948-1.968,4.1-3.037,4.811-2.763
		c0.35,0.134,0.752,0.898,0.836,2.66C53.386,33.176,53.564,36.235,53.291,39.51z"/>
	<path fill="#4D200B" d="M40.242,24.841l0.489-1.817c-0.117-0.031-2.839-0.811-2.839-3.326c0-0.67,0.474-1.087,1.312-1.769
		c0.99-0.804,2.222-1.805,2.222-3.721c0-2.814-2.346-4.137-3.586-4.444l-0.458,1.826c0.089,0.023,2.161,0.586,2.161,2.618
		c0,0.971-0.58,1.492-1.527,2.261c-0.894,0.726-2.007,1.63-2.007,3.229C36.009,22.875,38.778,24.452,40.242,24.841z"/>
	<path fill="#4D200B" d="M33.143,24.841l0.488-1.817c-0.116-0.031-2.838-0.811-2.838-3.326c0-0.67,0.474-1.087,1.312-1.769
		c0.99-0.804,2.222-1.805,2.222-3.721c0-2.814-2.346-4.137-3.585-4.444l-0.457,1.826c0.088,0.023,2.161,0.586,2.161,2.618
		c0,0.971-0.58,1.492-1.527,2.261c-0.894,0.726-2.006,1.63-2.006,3.229C28.911,22.875,31.679,24.452,33.143,24.841z"/>
</g>
</svg>
