<?xml version="1.0" encoding="utf-8"?>
<!-- Generator: Adobe Illustrator 17.0.0, SVG Export Plug-In . SVG Version: 6.00 Build 0)  -->
<!DOCTYPE svg PUBLIC "-//W3C//DTD SVG 1.1//EN" "http://www.w3.org/Graphics/SVG/1.1/DTD/svg11.dtd">
<svg version="1.1" xmlns="http://www.w3.org/2000/svg" xmlns:xlink="http://www.w3.org/1999/xlink" x="0px" y="0px" width="100px"
	 height="100px" viewBox="0 0 100 100" enable-background="new 0 0 100 100" xml:space="preserve">
<g id="Layer_1" display="none">
	<path display="inline" d="M56.039,29.57H20.117c-1.66,0-3.021,1.359-3.021,3.021c0,0-0.549,19.419,0,27.376
		c0.601,8.72,6.31,31.057,6.31,31.057C24.091,95.96,28.729,100,33.713,100h24.166c4.983,0,9.621-4.04,10.309-8.977
		c0,0,1.006-3.941,2.217-9.152c-0.002,0.011-0.006,0.022-0.007,0.033c0.315-0.095,0.631-0.16,0.94-0.29l9.09-3.814
		c4.541-1.906,8.658-7.475,9.147-12.375l1.802-18.047c0.488-4.899-3.14-8.91-8.065-8.91h-8.686c0.002,0.052,0.002,0.122,0.002,0.177
		c-0.064-3.56-0.135-6.054-0.135-6.054c0-1.662-1.359-3.021-3.02-3.021H57.55 M85.918,47.971l-1.689,16.921
		c-0.293,2.941-3.15,6.81-5.879,7.954l-6.532,2.741c-0.008,0.032-0.015,0.063-0.021,0.097c1.269-5.859,2.444-12.015,2.698-15.717
		c0.256-3.69,0.273-9.843,0.221-15.381l7.717-0.561C84.5,43.626,86.443,45.281,85.918,47.971z M38.119,24.09
		c-0.463,0-0.925-0.178-1.273-0.534c-0.695-0.704-0.688-1.837,0.017-2.532c2.229-2.196,2.524-5.103,0.786-7.771
		c-3.057-4.698-2.877-9.21,0.505-12.709c0.687-0.707,1.82-0.729,2.532-0.042c0.711,0.688,0.729,1.821,0.042,2.532
		c-0.806,0.834-3.26,3.374-0.079,8.265c2.656,4.079,2.156,8.898-1.271,12.275C39.027,23.919,38.574,24.09,38.119,24.09L38.119,24.09
		z M46.607,24.09c-0.463,0-0.926-0.178-1.275-0.534c-0.694-0.704-0.688-1.837,0.018-2.532c2.23-2.196,2.523-5.103,0.785-7.771
		c-3.055-4.698-2.877-9.21,0.506-12.709c0.688-0.707,1.82-0.729,2.532-0.042c0.71,0.688,0.729,1.821,0.042,2.532
		c-0.807,0.834-3.26,3.374-0.078,8.265c2.656,4.079,2.155,8.898-1.271,12.275C47.516,23.919,47.062,24.09,46.607,24.09L46.607,24.09
		z M55.095,24.09c-0.464,0-0.925-0.178-1.274-0.534c-0.695-0.704-0.688-1.837,0.017-2.532c2.229-2.196,2.524-5.103,0.785-7.771
		c-3.055-4.698-2.876-9.21,0.506-12.709c0.687-0.707,1.82-0.729,2.532-0.042c0.71,0.688,0.729,1.821,0.041,2.532
		c-0.805,0.834-3.26,3.374-0.078,8.265c2.656,4.079,2.156,8.898-1.271,12.275C56.002,23.919,55.549,24.09,55.095,24.09L55.095,24.09
		z"/>
</g>
<g id="Layer_2">
	<path d="M14.329,48.184c-0.549-7.967,0-27.409,0-27.409c0-1.664,1.361-3.025,3.021-3.025l37.433,0h13.923
		c1.661,0,3.02,1.361,3.02,3.025c0,0,0.071,2.497,0.135,6.061l-0.14-6.327c0,0,4.743,67.075-14.671,67.283H29.267
		C9.853,87.584,14.596,20.509,14.596,20.509"/>
	<path fill="none" stroke="#000000" stroke-width="4" stroke-miterlimit="10" d="M70.232,30.5c0,0,17.237-17.478,18.148,1.808
		c0,0,1.715,28.151-6.832,33.311c0,0-7.152,3.416-13.616,3.973"/>
</g>
</svg>
