<?xml version="1.0" encoding="utf-8"?>
<!-- Generator: Adobe Illustrator 16.0.4, SVG Export Plug-In . SVG Version: 6.00 Build 0)  -->
<!DOCTYPE svg PUBLIC "-//W3C//DTD SVG 1.1//EN" "http://www.w3.org/Graphics/SVG/1.1/DTD/svg11.dtd">
<svg version="1.1" id="Layer_1" xmlns="http://www.w3.org/2000/svg" xmlns:xlink="http://www.w3.org/1999/xlink" x="0px" y="0px"
	 width="100px" height="100px" viewBox="0 0 100 100" enable-background="new 0 0 100 100" xml:space="preserve">
<g id="Layer_1_1_" display="none">
	<path display="inline" d="M56.039,29.57H20.117c-1.66,0-3.021,1.359-3.021,3.021c0,0-0.549,19.419,0,27.376
		c0.601,8.721,6.31,31.057,6.31,31.057C24.091,95.96,28.729,100,33.713,100h24.166c4.982,0,9.621-4.04,10.309-8.977
		c0,0,1.006-3.941,2.217-9.152c-0.002,0.011-0.006,0.021-0.006,0.033c0.314-0.096,0.631-0.16,0.939-0.29l9.09-3.814
		c4.541-1.905,8.658-7.475,9.147-12.375l1.802-18.047c0.488-4.899-3.141-8.91-8.064-8.91h-8.687
		c0.002,0.052,0.002,0.122,0.002,0.177c-0.063-3.56-0.135-6.054-0.135-6.054c0-1.662-1.359-3.021-3.021-3.021H57.55 M85.918,47.971
		l-1.689,16.921c-0.293,2.939-3.148,6.81-5.879,7.952l-6.531,2.741c-0.008,0.032-0.016,0.062-0.021,0.098
		c1.271-5.858,2.444-12.016,2.698-15.718c0.256-3.688,0.271-9.843,0.221-15.381l7.719-0.561
		C84.5,43.626,86.443,45.281,85.918,47.971z M38.119,24.09c-0.463,0-0.925-0.178-1.273-0.534c-0.695-0.704-0.688-1.837,0.017-2.532
		c2.229-2.196,2.524-5.103,0.786-7.771c-3.057-4.698-2.877-9.21,0.505-12.709c0.687-0.707,1.82-0.729,2.532-0.042
		c0.711,0.688,0.729,1.821,0.042,2.532c-0.806,0.834-3.26,3.374-0.079,8.265c2.656,4.079,2.156,8.898-1.271,12.275
		C39.027,23.919,38.574,24.09,38.119,24.09L38.119,24.09z M46.607,24.09c-0.463,0-0.926-0.178-1.275-0.534
		c-0.694-0.704-0.688-1.837,0.018-2.532c2.23-2.196,2.523-5.103,0.785-7.771c-3.055-4.698-2.877-9.21,0.506-12.709
		c0.688-0.707,1.82-0.729,2.532-0.042c0.71,0.688,0.729,1.821,0.042,2.532c-0.807,0.834-3.26,3.374-0.078,8.265
		c2.656,4.079,2.155,8.898-1.271,12.275C47.516,23.919,47.062,24.09,46.607,24.09L46.607,24.09z M55.096,24.09
		c-0.465,0-0.926-0.178-1.275-0.534c-0.693-0.704-0.688-1.837,0.019-2.532c2.229-2.196,2.522-5.103,0.785-7.771
		c-3.056-4.698-2.876-9.21,0.506-12.709c0.688-0.707,1.82-0.729,2.532-0.042c0.71,0.688,0.729,1.821,0.041,2.532
		c-0.807,0.834-3.262,3.374-0.078,8.265c2.654,4.079,2.154,8.898-1.271,12.275C56.002,23.919,55.549,24.09,55.096,24.09
		L55.096,24.09z"/>
</g>
<path fill="#EACF91" d="M89.214,13.894c-5.31-2.032-11.635,1.583-15.932,4.889c-0.14-3.123-0.273-4.968-0.273-4.968l0.013,0.421
	c0-0.071,0-0.11,0-0.11c0-1.939-1.588-3.531-3.528-3.531H53.238h-43.7c-1.938,0-3.528,1.589-3.528,3.531
	c0,0-0.585,20.764-0.076,30.713c0.843,21.902,4.6,47.39,17.518,47.53h32.437c6.926-0.077,11.217-7.441,13.84-17.635
	c7.881-0.889,16.004-4.737,16.357-4.904l0.318-0.173c5.285-3.187,8.398-11.228,9.509-24.572c0.76-9.128,0.272-17.373,0.254-17.667
	C95.82,20.077,93.484,15.529,89.214,13.894z M88.516,44.546c-0.313,3.709-1.644,15.905-5.806,18.668
	c-1.009,0.464-6.108,2.726-11.375,3.763c2.165-13.024,2.411-28.387,2.224-39.24l0.354,0.352c5.124-5.173,10.778-7.983,12.647-7.264
	c0.922,0.354,1.977,2.36,2.197,6.993C88.764,27.896,89.232,35.938,88.516,44.546z"/>
</svg>
