<?xml version="1.0" encoding="utf-8"?>
<!-- Generator: Adobe Illustrator 16.0.4, SVG Export Plug-In . SVG Version: 6.00 Build 0)  -->
<!DOCTYPE svg PUBLIC "-//W3C//DTD SVG 1.1//EN" "http://www.w3.org/Graphics/SVG/1.1/DTD/svg11.dtd">
<svg version="1.1" id="Layer_1" xmlns="http://www.w3.org/2000/svg" xmlns:xlink="http://www.w3.org/1999/xlink" x="0px" y="0px"
	 width="139.25px" height="139.25px" viewBox="0 -67.25 139.25 139.25" enable-background="new 0 -67.25 139.25 139.25"
	 xml:space="preserve">
<g>
	<path fill="#4D200B" d="M67.395-61.682C31.673-61.682,2.61-32.619,2.61,3.103c0,35.722,29.063,64.786,64.785,64.786
		c35.724,0,64.784-29.064,64.784-64.786C132.179-32.619,103.116-61.682,67.395-61.682z M67.395,61.478
		c-32.189,0-58.375-26.187-58.375-58.375c0-32.189,26.187-58.375,58.375-58.375c32.19,0,58.375,26.188,58.375,58.375
		C125.77,35.291,99.581,61.478,67.395,61.478z"/>
	<path fill="#4D200B" d="M101.771-10.043c-3.931-1.504-8.614,1.172-11.796,3.62c-0.103-2.312-0.201-3.679-0.201-3.679l0.008,0.312
		c0-0.052,0-0.082,0-0.082c0-1.436-1.175-2.615-2.612-2.615H75.134H42.777c-1.436,0-2.612,1.177-2.612,2.615
		c0,0-0.434,15.374-0.057,22.741c0.625,16.217,3.406,35.087,12.971,35.193h24.017c5.128-0.058,8.306-5.511,10.248-13.057
		c5.836-0.658,11.85-3.509,12.111-3.632l0.236-0.127c3.913-2.361,6.219-8.314,7.04-18.194c0.562-6.759,0.201-12.863,0.188-13.081
		C106.663-5.465,104.934-8.832,101.771-10.043z M101.254,12.653c-0.232,2.746-1.217,11.777-4.298,13.822
		c-0.747,0.344-4.523,2.019-8.422,2.787c1.602-9.645,1.784-21.019,1.646-29.055l0.263,0.26c3.794-3.83,7.981-5.911,9.364-5.378
		c0.683,0.261,1.464,1.748,1.628,5.178C101.438,0.325,101.786,6.279,101.254,12.653z"/>
	<path fill="#4D200B" d="M75.855-15.898l0.951-3.537c-0.227-0.06-5.523-1.578-5.523-6.473c0-1.305,0.922-2.117,2.553-3.443
		c1.925-1.565,4.323-3.514,4.323-7.243c0-5.477-4.565-8.052-6.979-8.649l-0.891,3.554c0.173,0.044,4.206,1.14,4.206,5.096
		c0,1.89-1.129,2.904-2.973,4.4c-1.739,1.413-3.906,3.173-3.906,6.286C67.616-19.724,73.005-16.654,75.855-15.898z"/>
	<path fill="#4D200B" d="M62.038-15.898l0.95-3.537c-0.226-0.06-5.523-1.578-5.523-6.473c0-1.305,0.922-2.117,2.553-3.443
		c1.928-1.565,4.325-3.514,4.325-7.243c0-5.477-4.566-8.052-6.978-8.649l-0.89,3.554c0.171,0.044,4.206,1.14,4.206,5.096
		c0,1.89-1.129,2.904-2.973,4.4c-1.739,1.413-3.903,3.173-3.903,6.286C53.802-19.724,59.189-16.654,62.038-15.898z"/>
</g>
</svg>
