<?xml version="1.0" encoding="utf-8"?>
<!-- Generator: Adobe Illustrator 16.0.4, SVG Export Plug-In . SVG Version: 6.00 Build 0)  -->
<!DOCTYPE svg PUBLIC "-//W3C//DTD SVG 1.1//EN" "http://www.w3.org/Graphics/SVG/1.1/DTD/svg11.dtd">
<svg version="1.1" id="Layer_1" xmlns="http://www.w3.org/2000/svg" xmlns:xlink="http://www.w3.org/1999/xlink" x="0px" y="0px"
	 width="504.125px" height="139.25px" viewBox="0 0 504.125 139.25" enable-background="new 0 0 504.125 139.25"
	 xml:space="preserve">
<g>
	<path fill="#4D200B" d="M76.403,7.678c-35.722,0-64.785,29.063-64.785,64.785c0,35.723,29.063,64.785,64.785,64.785
		c35.725,0,64.785-29.062,64.785-64.785C141.188,36.741,112.125,7.678,76.403,7.678z M76.403,130.838
		c-32.188,0-58.375-26.188-58.375-58.375c0-32.189,26.187-58.375,58.375-58.375c32.19,0,58.375,26.188,58.375,58.375
		C134.778,104.65,108.59,130.838,76.403,130.838z"/>
	<path fill="#4D200B" d="M110.78,59.317c-3.932-1.504-8.614,1.172-11.797,3.62c-0.103-2.312-0.201-3.679-0.201-3.679l0.009,0.312
		c0-0.052,0-0.082,0-0.082c0-1.436-1.175-2.615-2.612-2.615H84.143H51.786c-1.436,0-2.612,1.177-2.612,2.615
		c0,0-0.434,15.374-0.057,22.741c0.625,16.217,3.406,35.088,12.971,35.193h24.017c5.129-0.059,8.307-5.512,10.248-13.057
		c5.836-0.658,11.85-3.51,12.111-3.633l0.236-0.127c3.912-2.361,6.219-8.314,7.039-18.193c0.562-6.76,0.201-12.863,0.188-13.082
		C115.672,63.895,113.942,60.528,110.78,59.317z M110.263,82.012c-0.232,2.746-1.217,11.777-4.298,13.822
		c-0.747,0.344-4.522,2.02-8.422,2.787c1.602-9.645,1.784-21.018,1.646-29.055l0.264,0.26c3.793-3.829,7.98-5.91,9.363-5.377
		c0.684,0.261,1.465,1.749,1.629,5.178C110.446,69.686,110.795,75.639,110.263,82.012z"/>
	<path fill="#4D200B" d="M84.864,53.462l0.951-3.537c-0.228-0.06-5.523-1.578-5.523-6.473c0-1.305,0.922-2.117,2.553-3.443
		c1.925-1.565,4.323-3.514,4.323-7.243c0-5.477-4.565-8.052-6.979-8.649l-0.891,3.554c0.173,0.044,4.206,1.14,4.206,5.096
		c0,1.89-1.129,2.904-2.974,4.4c-1.738,1.413-3.905,3.173-3.905,6.286C76.625,49.636,82.014,52.706,84.864,53.462z"/>
	<path fill="#4D200B" d="M71.047,53.462l0.949-3.537c-0.226-0.06-5.522-1.578-5.522-6.473c0-1.305,0.922-2.117,2.553-3.443
		c1.927-1.565,4.325-3.514,4.325-7.243c0-5.477-4.566-8.052-6.978-8.649l-0.89,3.554c0.171,0.044,4.206,1.14,4.206,5.096
		c0,1.89-1.129,2.904-2.973,4.4c-1.739,1.413-3.903,3.173-3.903,6.286C62.811,49.636,68.198,52.706,71.047,53.462z"/>
</g>
<g>
	<path fill="#4D200B" d="M176.513,85.809c-1.304,1.303-3.309,1.955-6.014,1.955c-2.706,0-5.575-0.143-8.606-0.426v-5.736
		c2.21,0.143,4.477,0.213,6.8,0.213c0.651,0,1.169-0.191,1.552-0.574s0.573-0.9,0.573-1.551V63.539h-5.524v-5.95h13.175v22.101
		C178.468,82.465,177.815,84.506,176.513,85.809z"/>
	<path fill="#4D200B" d="M197.593,87.338h-15.3v-5.949h3.824v-17.85h-3.824v-5.95h15.3v5.95h-3.825v17.85h3.825V87.338z"/>
	<path fill="#4D200B" d="M215.867,87.338h-7.65V63.539h-8.925v-5.95h25.5v5.95h-8.925V87.338z"/>
	<path fill="#4D200B" d="M241.367,87.338h-7.65V63.539h-8.925v-5.95h25.5v5.95h-8.925V87.338z"/>
	<path fill="#4D200B" d="M276.854,87.338h-23.588v-29.75h23.588v5.95h-15.938v5.737h12.537v5.951h-12.537v6.162h15.938V87.338z"/>
	<path fill="#4D200B" d="M280.254,57.588h17.851c2.975,0,5.135,0.673,6.48,2.019c1.346,1.346,2.02,3.506,2.02,6.481v3.826
		c0,2.352-0.391,4.18-1.169,5.482c-0.78,1.303-2.019,2.168-3.719,2.592l5.312,9.35h-8.288l-4.887-8.924h-5.95v8.924h-7.65V57.588z
		 M298.954,66.088c0-1.7-0.85-2.549-2.55-2.549h-8.5v8.924h8.5c1.7,0,2.55-0.85,2.55-2.549V66.088z"/>
	<path fill="#4D200B" d="M307.454,57.588h8.074l7.013,14.451l7.013-14.451h8.075l-11.263,21.888v7.861h-7.65v-7.861L307.454,57.588z
		"/>
	<path fill="#4D200B" d="M364.573,85.809c-1.304,1.303-3.309,1.955-6.014,1.955c-2.706,0-5.575-0.143-8.606-0.426v-5.736
		c2.21,0.143,4.477,0.213,6.8,0.213c0.651,0,1.169-0.191,1.552-0.574s0.573-0.9,0.573-1.551V63.539h-5.524v-5.95h13.175v22.101
		C366.528,82.465,365.876,84.506,364.573,85.809z"/>
	<path fill="#4D200B" d="M398.402,79.264c0,2.975-0.674,5.137-2.019,6.48c-1.347,1.348-3.507,2.02-6.481,2.02h-10.625
		c-2.976,0-5.136-0.672-6.481-2.02c-1.346-1.344-2.019-3.506-2.019-6.48v-13.6c0-2.975,0.673-5.136,2.019-6.482
		c1.346-1.345,3.506-2.019,6.481-2.019h10.625c2.975,0,5.135,0.673,6.481,2.019c1.345,1.346,2.019,3.507,2.019,6.482V79.264z
		 M390.752,65.664c0-1.701-0.85-2.551-2.55-2.551h-7.225c-1.7,0-2.551,0.851-2.551,2.551v13.6c0,1.699,0.851,2.551,2.551,2.551
		h7.225c1.7,0,2.55-0.852,2.55-2.551V65.664z"/>
	<path fill="#4D200B" d="M426.24,87.338h-23.588v-29.75h23.588v5.95h-15.938v5.737h12.537v5.951h-12.537v6.162h15.938V87.338z"/>
	<path fill="#4D200B" d="M428.365,57.588h7.649v5.95l-2.975,4.674h-3.825l1.7-4.25h-2.55V57.588z"/>
	<path fill="#4D200B" d="M438.946,81.176c7.763,0.426,13.02,0.639,15.768,0.639c0.651,0,1.169-0.191,1.552-0.574
		c0.382-0.383,0.573-0.9,0.573-1.551v-3.826h-9.774c-2.976,0-5.137-0.672-6.481-2.018c-1.347-1.346-2.019-3.508-2.019-6.482v-1.275
		c0-2.975,0.672-5.135,2.019-6.481c1.345-1.345,3.506-2.019,6.481-2.019h14.917v5.95h-13.218c-1.699,0-2.55,0.85-2.55,2.549v0.852
		c0,1.699,0.851,2.549,2.55,2.549h7.65c2.776,0,4.816,0.652,6.12,1.955c1.303,1.305,1.955,3.344,1.955,6.121v2.125
		c0,2.775-0.652,4.816-1.955,6.119c-1.304,1.303-3.344,1.955-6.12,1.955c-1.445,0-2.975-0.029-4.59-0.086l-3.91-0.17
		c-2.89-0.141-5.88-0.34-8.968-0.594V81.176z"/>
</g>
</svg>
