<?xml version="1.0" encoding="utf-8"?>
<!-- Generator: Adobe Illustrator 16.0.0, SVG Export Plug-In . SVG Version: 6.00 Build 0)  -->
<!DOCTYPE svg PUBLIC "-//W3C//DTD SVG 1.1//EN" "http://www.w3.org/Graphics/SVG/1.1/DTD/svg11.dtd">
<svg version="1.1" id="Layer_1" xmlns="http://www.w3.org/2000/svg" xmlns:xlink="http://www.w3.org/1999/xlink" x="0px" y="0px"
	 width="324.125px" height="324.125px" viewBox="0 0 324.125 324.125" enable-background="new 0 0 324.125 324.125"
	 xml:space="preserve">
<g>
	<path fill="#4D200B" d="M162.064-0.617C72.702-0.617,0,72.222,0,161.751c0,89.531,72.702,162.374,162.064,162.374
		c89.365,0,162.061-72.843,162.061-162.374C324.125,72.222,251.422-0.617,162.064-0.617z M162.064,308.054
		c-80.522,0-146.029-65.631-146.029-146.302c0-80.675,65.509-146.303,146.029-146.303c80.523,0,146.025,65.635,146.025,146.303
		C308.089,242.423,242.578,308.054,162.064,308.054z"/>
	<path fill="#4D200B" d="M248.058,128.805c-9.837-3.77-21.55,2.936-29.511,9.073c-0.256-5.795-0.504-9.221-0.504-9.221l0.023,0.781
		c0-0.13,0-0.205,0-0.205c0-3.6-2.939-6.554-6.535-6.554h-30.11h-80.942c-3.592,0-6.534,2.949-6.534,6.554
		c0,0-1.086,38.532-0.142,56.996c1.563,40.645,8.521,87.938,32.447,88.202h60.079c12.83-0.146,20.778-13.812,25.636-32.725
		c14.6-1.648,29.643-8.793,30.296-9.101l0.592-0.318c9.788-5.918,15.557-20.838,17.608-45.6c1.408-16.94,0.504-32.238,0.473-32.784
		C260.294,140.279,255.967,131.838,248.058,128.805z M246.763,185.687c-0.581,6.884-3.044,29.518-10.75,34.643
		c-1.872,0.861-11.315,5.06-21.07,6.983c4.008-24.172,4.464-52.679,4.119-72.82l0.659,0.65c9.487-9.597,19.963-14.813,23.421-13.477
		c1.711,0.654,3.664,4.381,4.075,12.977C247.221,154.79,248.096,169.71,246.763,185.687z"/>
	<path fill="#4D200B" d="M183.227,114.131l2.379-8.866c-0.569-0.15-13.816-3.955-13.816-16.224c0-3.27,2.307-5.305,6.386-8.628
		c4.815-3.923,10.815-8.807,10.815-18.152c0-13.727-11.421-20.181-17.461-21.677l-2.227,8.907
		c0.432,0.11,10.521,2.858,10.521,12.772c0,4.736-2.823,7.278-7.437,11.028c-4.35,3.541-9.771,7.952-9.771,15.754
		C162.616,104.54,176.097,112.235,183.227,114.131z"/>
	<path fill="#4D200B" d="M148.663,114.131l2.375-8.866c-0.563-0.15-13.815-3.955-13.815-16.224c0-3.27,2.307-5.305,6.387-8.628
		c4.823-3.923,10.818-8.807,10.818-18.152c0-13.727-11.423-20.181-17.456-21.677l-2.226,8.907
		c0.427,0.11,10.521,2.858,10.521,12.772c0,4.736-2.825,7.278-7.436,11.028c-4.352,3.541-9.763,7.952-9.763,15.754
		C128.059,104.54,141.536,112.235,148.663,114.131z"/>
</g>
</svg>
