<?xml version="1.0" encoding="utf-8"?>
<!-- Generator: Adobe Illustrator 16.0.4, SVG Export Plug-In . SVG Version: 6.00 Build 0)  -->
<!DOCTYPE svg PUBLIC "-//W3C//DTD SVG 1.1//EN" "http://www.w3.org/Graphics/SVG/1.1/DTD/svg11.dtd">
<svg version="1.1" id="Layer_1" xmlns="http://www.w3.org/2000/svg" xmlns:xlink="http://www.w3.org/1999/xlink" x="0px" y="0px"
	 width="324.125px" height="324.125px" viewBox="0 -184.875 324.125 324.125" enable-background="new 0 -184.875 324.125 324.125"
	 xml:space="preserve">
<g>
	<path fill="#4D200B" d="M155.895-173.896C71.374-173.896,2.61-105.132,2.61-20.611c0,84.52,68.764,153.288,153.285,153.288
		c84.524,0,153.283-68.768,153.283-153.288C309.178-105.132,240.412-173.896,155.895-173.896z M155.895,117.505
		c-76.16,0-138.118-61.958-138.118-138.116c0-76.161,61.96-138.118,138.118-138.118c76.162,0,138.116,61.962,138.116,138.118
		C294.011,55.547,232.048,117.505,155.895,117.505z"/>
	<path fill="#4D200B" d="M237.23-51.715c-9.303-3.559-20.382,2.772-27.912,8.565c-0.242-5.47-0.476-8.705-0.476-8.705l0.021,0.738
		c0-0.122,0-0.194,0-0.194c0-3.398-2.779-6.187-6.181-6.187h-28.478H97.646c-3.397,0-6.18,2.784-6.18,6.187
		c0,0-1.027,36.375-0.135,53.807c1.479,38.37,8.06,83.017,30.69,83.267h56.824c12.135-0.137,19.653-13.039,24.247-30.893
		c13.809-1.557,28.037-8.302,28.656-8.593l0.559-0.3c9.257-5.587,14.714-19.67,16.655-43.048
		c1.331-15.992,0.476-30.434,0.446-30.949C248.805-40.883,244.712-48.851,237.23-51.715z M236.006,1.985
		c-0.55,6.498-2.879,27.866-10.169,32.704c-1.768,0.813-10.7,4.776-19.927,6.594c3.79-22.821,4.222-49.733,3.894-68.747l0.624,0.614
		c8.975-9.061,18.882-13.985,22.154-12.724c1.617,0.618,3.466,4.136,3.854,12.252C236.44-27.184,237.266-13.099,236.006,1.985z"/>
	<path fill="#4D200B" d="M175.912-65.568l2.25-8.369c-0.538-0.142-13.068-3.734-13.068-15.316c0-3.087,2.182-5.008,6.04-8.146
		c4.554-3.703,10.229-8.314,10.229-17.136c0-12.959-10.803-19.052-16.515-20.465l-2.106,8.409c0.408,0.104,9.951,2.698,9.951,12.058
		c0,4.471-2.671,6.871-7.035,10.411c-4.113,3.342-9.24,7.507-9.24,14.872C156.418-74.622,169.168-67.357,175.912-65.568z"/>
	<path fill="#4D200B" d="M143.22-65.568l2.247-8.369c-0.534-0.142-13.067-3.734-13.067-15.316c0-3.087,2.182-5.008,6.041-8.146
		c4.561-3.703,10.232-8.314,10.232-17.136c0-12.959-10.804-19.052-16.51-20.465l-2.105,8.409c0.404,0.104,9.951,2.698,9.951,12.058
		c0,4.471-2.672,6.871-7.034,10.411c-4.115,3.342-9.234,7.507-9.234,14.872C123.732-74.622,136.479-67.357,143.22-65.568z"/>
</g>
</svg>
