<?xml version="1.0" encoding="utf-8"?>
<!-- Generator: Adobe Illustrator 16.0.4, SVG Export Plug-In . SVG Version: 6.00 Build 0)  -->
<!DOCTYPE svg PUBLIC "-//W3C//DTD SVG 1.1//EN" "http://www.w3.org/Graphics/SVG/1.1/DTD/svg11.dtd">
<svg version="1.1" id="Layer_1" xmlns="http://www.w3.org/2000/svg" xmlns:xlink="http://www.w3.org/1999/xlink" x="0px" y="0px"
	 width="324.125px" height="324.125px" viewBox="0 0 324.125 324.125" enable-background="new 0 0 324.125 324.125"
	 xml:space="preserve">
<g>
	<path fill="#4D200B" d="M158.979,13.568c-65.689,0-119.132,53.443-119.132,119.132c0,65.688,53.442,119.133,119.132,119.133
		c65.691,0,119.13-53.445,119.13-119.133C278.109,67.011,224.665,13.568,158.979,13.568z M158.979,240.043
		c-59.191,0-107.344-48.153-107.344-107.342c0-59.192,48.155-107.345,107.344-107.345c59.192,0,107.342,48.156,107.342,107.345
		C266.321,191.89,218.164,240.043,158.979,240.043z"/>
	<path fill="#4D200B" d="M222.192,108.527c-7.231-2.766-15.842,2.154-21.693,6.656c-0.188-4.251-0.37-6.765-0.37-6.765l0.017,0.573
		c0-0.095,0-0.151,0-0.151c0-2.641-2.16-4.808-4.805-4.808h-22.132h-59.5c-2.641,0-4.804,2.164-4.804,4.808
		c0,0-0.797,28.271-0.104,41.819c1.15,29.821,6.264,64.521,23.852,64.716h44.164c9.431-0.107,15.273-10.135,18.844-24.012
		c10.731-1.21,21.79-6.451,22.271-6.678l0.434-0.233c7.195-4.343,11.437-15.287,12.944-33.457
		c1.034-12.429,0.37-23.653,0.347-24.053C231.188,116.945,228.007,110.752,222.192,108.527z M221.24,150.262
		c-0.427,5.05-2.237,21.658-7.903,25.418c-1.374,0.631-8.315,3.711-15.486,5.125c2.945-17.737,3.28-38.653,3.026-53.43l0.484,0.477
		c6.975-7.042,14.676-10.869,17.218-9.889c1.257,0.48,2.694,3.214,2.995,9.522C221.577,127.592,222.22,138.539,221.24,150.262z"/>
	<path fill="#4D200B" d="M174.536,97.76l1.749-6.504c-0.419-0.11-10.157-2.902-10.157-11.903c0-2.399,1.695-3.892,4.694-6.331
		c3.539-2.878,7.95-6.461,7.95-13.318c0-10.072-8.396-14.807-12.836-15.905l-1.636,6.535c0.316,0.081,7.733,2.097,7.733,9.371
		c0,3.475-2.076,5.34-5.468,8.092c-3.196,2.597-7.181,5.834-7.181,11.558C159.385,90.723,169.295,96.37,174.536,97.76z"/>
	<path fill="#4D200B" d="M149.128,97.76l1.746-6.504c-0.415-0.11-10.155-2.902-10.155-11.903c0-2.399,1.696-3.892,4.695-6.331
		c3.544-2.878,7.952-6.461,7.952-13.318c0-10.072-8.396-14.807-12.831-15.905l-1.636,6.535c0.313,0.081,7.733,2.097,7.733,9.371
		c0,3.475-2.077,5.34-5.466,8.092c-3.198,2.597-7.177,5.834-7.177,11.558C133.982,90.723,143.889,96.37,149.128,97.76z"/>
</g>
<g>
	<path fill="#4D200B" d="M52.752,290.93c-1.013,1.014-2.571,1.52-4.673,1.52c-2.104,0-4.333-0.109-6.689-0.33v-4.459
		c1.717,0.111,3.48,0.166,5.285,0.166c0.506,0,0.909-0.148,1.207-0.445c0.298-0.299,0.445-0.699,0.445-1.207v-12.551h-4.292v-4.625
		h10.239v17.176C54.272,288.332,53.764,289.918,52.752,290.93z"/>
	<path fill="#4D200B" d="M69.136,292.119H57.245v-4.625h2.972v-13.871h-2.972v-4.625h11.891v4.625h-2.973v13.871h2.973V292.119z"/>
	<path fill="#4D200B" d="M83.339,292.119h-5.946v-18.496h-6.937v-4.625h19.818v4.625h-6.936V292.119z"/>
	<path fill="#4D200B" d="M103.157,292.119h-5.946v-18.496h-6.937v-4.625h19.818v4.625h-6.936V292.119z"/>
	<path fill="#4D200B" d="M130.737,292.119h-18.333v-23.121h18.333v4.623h-12.386v4.459h9.744v4.625h-9.744v4.789h12.386V292.119z"/>
	<path fill="#4D200B" d="M133.38,268.998h13.874c2.312,0,3.991,0.521,5.036,1.568c1.046,1.047,1.57,2.725,1.57,5.037v2.973
		c0,1.828-0.304,3.25-0.909,4.262c-0.606,1.012-1.569,1.686-2.89,2.014l4.129,7.268h-6.441l-3.799-6.936h-4.624v6.936h-5.945
		V268.998L133.38,268.998z M147.913,275.604c0-1.322-0.661-1.98-1.981-1.98h-6.606v6.936h6.606c1.32,0,1.981-0.66,1.981-1.982
		V275.604z"/>
	<path fill="#4D200B" d="M154.52,268.998h6.274l5.451,11.23l5.451-11.23h6.274l-8.753,17.012v6.107h-5.946v-6.107L154.52,268.998z"
		/>
	<path fill="#4D200B" d="M198.912,290.93c-1.014,1.014-2.572,1.52-4.675,1.52s-4.332-0.109-6.688-0.33v-4.459
		c1.717,0.111,3.479,0.166,5.284,0.166c0.506,0,0.908-0.148,1.206-0.445c0.298-0.299,0.445-0.699,0.445-1.207v-12.551h-4.293v-4.625
		h10.24v17.176C200.431,288.332,199.925,289.918,198.912,290.93z"/>
	<path fill="#4D200B" d="M225.204,285.844c0,2.312-0.524,3.992-1.57,5.037c-1.046,1.047-2.726,1.568-5.036,1.568h-8.258
		c-2.313,0-3.992-0.521-5.037-1.568c-1.046-1.045-1.569-2.725-1.569-5.037v-10.57c0-2.312,0.523-3.99,1.569-5.037
		c1.047-1.045,2.725-1.568,5.037-1.568h8.258c2.312,0,3.99,0.521,5.036,1.568s1.57,2.725,1.57,5.037V285.844z M219.258,275.273
		c0-1.322-0.66-1.982-1.981-1.982h-5.616c-1.32,0-1.982,0.662-1.982,1.982v10.57c0,1.32,0.662,1.982,1.982,1.982h5.616
		c1.321,0,1.981-0.662,1.981-1.982V275.273z"/>
	<path fill="#4D200B" d="M246.839,292.119h-18.332v-23.121h18.332v4.623h-12.387v4.459h9.743v4.625h-9.743v4.789h12.387V292.119z"/>
	<path fill="#4D200B" d="M248.49,268.998h5.945v4.623l-2.312,3.633h-2.973l1.321-3.303h-1.981V268.998L248.49,268.998z"/>
	<path fill="#4D200B" d="M256.714,287.33c6.033,0.33,10.119,0.496,12.255,0.496c0.506,0,0.908-0.148,1.206-0.445
		c0.298-0.299,0.445-0.699,0.445-1.207v-2.973h-7.596c-2.313,0-3.993-0.523-5.037-1.568c-1.047-1.047-1.569-2.727-1.569-5.037
		v-0.992c0-2.311,0.522-3.99,1.569-5.035c1.045-1.047,2.725-1.57,5.037-1.57h11.594v4.625h-10.274c-1.319,0-1.981,0.66-1.981,1.98
		v0.662c0,1.32,0.662,1.98,1.981,1.98h5.946c2.158,0,3.743,0.508,4.757,1.52c1.012,1.016,1.52,2.6,1.52,4.758v1.65
		c0,2.158-0.508,3.744-1.52,4.756c-1.014,1.014-2.599,1.52-4.757,1.52c-1.123,0-2.312-0.021-3.567-0.066l-3.039-0.133
		c-2.245-0.109-4.569-0.264-6.97-0.461V287.33z"/>
</g>
</svg>
